<svg width="329" height="89" viewBox="0 0 329 89" fill="none" xmlns="http://www.w3.org/2000/svg">
<path d="M73 43.5C73 60.3447 59.3447 74 42.5 74C25.6553 74 12 60.3447 12 43.5C12 26.6553 25.6553 13 42.5 13C59.3447 13 73 26.6553 73 43.5Z" fill="#0069FF"/>
<path d="M78.6809 26.2045L88.377 17.1324C91.1073 14.5779 89.2996 10 85.5606 10C84.5125 10 83.5037 10.3993 82.7395 11.1166L48.6315 43.13C47.7072 44.0093 46.4783 44.5 45.2001 44.5C43.7949 44.5 42.4554 43.9073 41.5135 42.8686L28.9859 29.0541C28.5349 28.5568 27.9624 28.1841 27.3241 27.9722L27.0815 27.8916C26.8443 27.8129 26.5959 27.7727 26.3459 27.7727C25.5948 27.7727 24.8898 28.1341 24.4532 28.7429L22.9888 30.7849C22.6812 31.2138 22.4388 31.6889 22.2715 32.1889C22.0923 32.7241 22 33.2876 22 33.8518C22 34.6667 22.1905 35.4704 22.5564 36.1992L22.6335 36.3529C22.9093 36.9022 23.2684 37.4059 23.6983 37.8463L39.3495 53.8804C40.6722 55.2355 42.489 56 44.3865 56C46.1874 56 47.9195 55.3112 49.2251 54.0758L78.6809 26.2045Z" fill="white" stroke="#0069FF"/>
<path fill-rule="evenodd" clip-rule="evenodd" d="M281.068 41.0918C281.023 41.3635 281 41.6384 281 41.9138V48.5V52.8845C281 53.2933 281.05 53.7005 281.149 54.0971L281.755 56.5204C281.917 57.167 282.206 57.7746 282.606 58.3078L284.292 60.5557C284.758 61.1767 285.361 61.6807 286.056 62.0279L289.156 63.5781C289.714 63.8569 290.319 64.029 290.94 64.0854L294.997 64.4543C295.332 64.4847 295.668 64.4813 296.002 64.4442L299.38 64.0689C299.792 64.0231 300.196 63.9265 300.584 63.7811L303.206 62.7977C303.732 62.6006 304.22 62.3165 304.651 61.9572L306.028 60.8098C306.666 60.2783 307.161 59.5964 307.47 58.8256L308.761 55.5978C308.92 55.2009 309.027 54.7853 309.08 54.3611L309.5 51V42.8114C309.5 42.274 309.413 41.7401 309.243 41.2302L307.994 37.4817C307.672 36.5169 307.064 35.6731 306.25 35.0629L303.979 33.3596C303.661 33.1207 303.315 32.9207 302.949 32.7639L300.681 31.7919C300.229 31.5983 299.752 31.4724 299.264 31.4182L295.5 31H292.407C291.807 31 291.212 31.1078 290.651 31.3184L287.926 32.3401C287.643 32.4465 287.369 32.5784 287.11 32.7343L285.528 33.6833C285.177 33.8936 284.854 34.1462 284.565 34.4352L283.435 35.5648C283.146 35.8538 282.894 36.1773 282.683 36.5278L281.988 37.6859C281.666 38.2238 281.447 38.8177 281.344 39.4364L281.068 41.0918ZM295.495 37.5C295.166 37.5 294.837 37.5325 294.515 37.5971L293.157 37.8687C292.721 37.9558 292.299 38.1007 291.901 38.2994L291.688 38.4062C290.909 38.7953 290.246 39.3808 289.763 40.1048L289.5 40.5L289.299 40.9011C289.101 41.2986 288.956 41.7208 288.869 42.1566L288.597 43.5145C288.533 43.8374 288.5 44.1658 288.5 44.4951V51.3845C288.5 51.7933 288.55 52.2005 288.649 52.5971L288.867 53.4675C288.955 53.8214 289.082 54.1646 289.245 54.4909L289.464 54.9281C289.815 55.6305 290.344 56.2291 290.997 56.6648V56.6648C291.331 56.8873 291.693 57.0643 292.073 57.1911L293 57.5L293.73 57.7434C294.24 57.9134 294.774 58 295.311 58H296.209C296.733 58 297.253 57.9156 297.75 57.75V57.75C298.247 57.5844 298.714 57.3398 299.132 57.0257L299.556 56.7082C300.177 56.2425 300.681 55.6385 301.028 54.9443L301.255 54.4909C301.418 54.1646 301.545 53.8214 301.633 53.4675L301.851 52.5972C301.95 52.2005 302 51.7933 302 51.3845V44.9138C302 44.6384 301.977 44.3635 301.932 44.0918L301.624 42.2416C301.542 41.75 301.387 41.2733 301.164 40.8275L301.028 40.5557C300.681 39.8615 300.177 39.2575 299.556 38.7918L299.132 38.4743C298.714 38.1602 298.247 37.9156 297.75 37.75V37.75C297.253 37.5844 296.733 37.5 296.209 37.5H295.495Z" fill="#0069FF"/>
<path d="M247.5 38.5L247.034 33.3737C247.012 33.1369 247.097 32.9028 247.265 32.7347C247.416 32.5844 247.619 32.5 247.832 32.5H252.529C253.366 32.5 254.07 33.1297 254.162 33.9621C254.307 35.2639 255.842 35.8817 256.848 35.0432L257.324 34.6469C257.441 34.5493 257.569 34.4656 257.705 34.3974L260.182 33.1589C260.394 33.0531 260.613 32.9624 260.837 32.8876L262.73 32.2566C263.24 32.0866 263.774 32 264.311 32H266.505C266.834 32 267.163 32.0325 267.485 32.0971L268.843 32.3687C269.279 32.4558 269.701 32.6007 270.099 32.7994L271.312 33.4062C272.091 33.7953 272.754 34.3808 273.237 35.1048L273.982 36.2229C274.324 36.7365 274.569 37.3091 274.703 37.9117L275.381 40.9642C275.46 41.3203 275.5 41.684 275.5 42.0489V62.691C275.5 62.8942 275.453 63.0946 275.362 63.2764C275.14 63.7199 274.687 64 274.191 64H268.809C268.606 64 268.405 63.9527 268.224 63.8618C267.78 63.6401 267.5 63.1868 267.5 62.691V42.9951C267.5 42.6658 267.467 42.3374 267.403 42.0145L267.262 41.3092C267.093 40.4661 266.62 39.7148 265.932 39.1989C265.327 38.7452 264.591 38.5 263.835 38.5H263H262.311C261.774 38.5 261.24 38.5866 260.73 38.7566L260.521 38.8264C260.175 38.9418 259.842 39.0947 259.529 39.2824L257.5 40.5C256.241 41.4443 255.5 42.9262 255.5 44.5V62.691C255.5 63.1868 255.22 63.6401 254.776 63.8618C254.595 63.9527 254.394 64 254.191 64H248.354C248.127 64 247.91 63.9101 247.75 63.75C247.59 63.5899 247.5 63.3728 247.5 63.1464V49V38.5Z" fill="#0069FF"/>
<path d="M222.396 34.6881L222.134 33.9016C222.052 33.6555 222.116 33.3841 222.299 33.2006C222.428 33.0722 222.602 33 222.784 33H227.595C228.434 33 229.179 33.537 229.444 34.3332L229.46 34.3792C229.487 34.4596 229.506 34.5422 229.518 34.626L229.668 35.6742C229.79 36.5325 230.889 36.8141 231.41 36.1205C231.47 36.0406 231.541 35.9705 231.623 35.9125L234.681 33.728C234.893 33.5762 235.117 33.4413 235.351 33.3246L236.401 32.7994C236.799 32.6007 237.221 32.4558 237.657 32.3687L238.962 32.1076C239.315 32.0371 239.679 32.0598 240.02 32.1734C240.637 32.379 241.121 32.863 241.327 33.4797L241.377 33.6325C241.459 33.8759 241.5 34.1308 241.5 34.3874V39.191C241.5 39.6868 241.22 40.1401 240.776 40.3618C240.595 40.4527 240.394 40.5 240.191 40.5H239.843C239.615 40.5 239.388 40.4721 239.167 40.4169L238.906 40.3514C237.988 40.1219 237.023 40.159 236.125 40.4582L236 40.5L235.27 40.7434C234.76 40.9134 234.281 41.1644 233.851 41.4868L232.784 42.2868C232.595 42.4288 232.416 42.584 232.249 42.7513L231.964 43.0355C231.027 43.9732 230.5 45.245 230.5 46.5711V63.6464C230.5 63.8728 230.41 64.0899 230.25 64.25C230.09 64.4101 229.873 64.5 229.646 64.5H225H224.5C223.672 64.5 223 63.8284 223 63V59V48.5L222.5 35.5V35.3288C222.5 35.111 222.465 34.8947 222.396 34.6881Z" fill="#0069FF"/>
<path d="M161.476 31H157.758C157.593 31 157.434 31.0656 157.318 31.1825C157.128 31.3721 157.081 31.6618 157.201 31.9016L158 33.5L162.5 45.5L165.5 53L168.909 61.767C168.969 61.921 169 62.0848 169 62.25C169 62.4152 168.969 62.579 168.909 62.733L165.5 71.5L164.661 73.5968C164.563 73.8414 164.621 74.1208 164.807 74.3071C164.931 74.4306 165.098 74.5 165.273 74.5H171.031C171.331 74.5 171.619 74.3807 171.832 74.1684C171.943 74.0573 172.029 73.9244 172.086 73.7781L175.5 65L181.5 49L187.85 31.9028C187.942 31.6574 187.881 31.3813 187.696 31.1961C187.571 31.0706 187.4 31 187.223 31H180.95C180.662 31 180.385 31.1146 180.182 31.3185C180.062 31.4379 179.972 31.5834 179.919 31.7435L178.5 36L174.5 47L173.713 49.5592C173.37 50.6711 171.782 50.6286 171.5 49.5L170.5 46.5L169.5 43.5L167.5 38L166.185 34.3183C165.474 32.3284 163.589 31 161.476 31Z" fill="#0069FF"/>
<path fill-rule="evenodd" clip-rule="evenodd" d="M99.75 20C97.6789 20 96 21.6789 96 23.75V58.3855C96 60.8859 97.847 63.0019 100.324 63.3397L101.5 63.5L106 64H108H111.451C111.816 64 112.18 63.9601 112.536 63.8809L115.662 63.1861C116.217 63.063 116.746 62.8462 117.228 62.5452L119.307 61.2456C120.087 60.758 120.718 60.0646 121.129 59.2417L122.201 57.0989C122.399 56.7014 122.544 56.2792 122.631 55.8434L122.903 54.4855C122.967 54.1626 123 53.8342 123 53.5049V47V40.3114C123 39.774 122.913 39.2401 122.743 38.7302L122.174 37.0207C122.058 36.6746 121.905 36.3422 121.718 36.0294L120.962 34.7705C120.657 34.2609 120.262 33.8099 119.798 33.4387L119.017 32.8135C118.35 32.2801 117.558 31.9263 116.715 31.7859L115.408 31.568C115.137 31.5228 114.862 31.5 114.586 31.5H112.414C112.138 31.5 111.863 31.5228 111.592 31.568L109.742 31.8764C109.25 31.9583 108.773 32.1133 108.328 32.3362L106.139 33.4306C106.047 33.4767 105.959 33.5325 105.879 33.5969V33.5969C104.92 34.3639 103.5 33.6813 103.5 32.4536V23.75C103.5 21.6789 101.821 20 99.75 20V20ZM103.5 53.4689C103.5 55.7718 105.215 57.7144 107.5 58V58H109.537C110.173 58 110.803 57.8786 111.394 57.6424L112.047 57.3812C112.676 57.1297 113.247 56.7531 113.726 56.2743L113.926 56.0737C114.306 55.6937 114.623 55.2549 114.863 54.7743L114.972 54.5557C115.319 53.8615 115.5 53.0959 115.5 52.3197V49V43.4138C115.5 43.1384 115.477 42.8635 115.432 42.5918L115.114 40.6843C115.039 40.2332 114.869 39.8033 114.615 39.4228L114.595 39.3932C114.21 38.8143 113.642 38.3806 112.982 38.1605V38.1605C112.663 38.0542 112.329 38 111.992 38H111.495C111.166 38 110.837 38.0325 110.515 38.0971L109.157 38.3687C108.721 38.4558 108.299 38.6007 107.901 38.7994L106.903 39.2984C106.635 39.4325 106.379 39.5905 106.139 39.7705L104.666 40.8757C104.555 40.9585 104.451 41.0489 104.354 41.1464V41.1464C103.807 41.693 103.5 42.4342 103.5 43.2071V53.4689Z" fill="#0069FF"/>
<path fill-rule="evenodd" clip-rule="evenodd" d="M136.5 39.7094C136.5 40.4222 135.922 41 135.209 41H131.003C130.388 41 129.826 40.6528 129.552 40.1031V40.1031C129.517 40.0345 129.488 39.9634 129.464 39.8906L129.412 39.7364C129.145 38.9338 129.145 38.0662 129.412 37.2636L129.627 36.6198C129.872 35.8834 130.286 35.2142 130.835 34.6654L132 33.5L132.084 33.4161C132.685 32.8153 133.429 32.3775 134.246 32.1441L136.5 31.5L137.903 31.1493C138.299 31.0501 138.707 31 139.116 31H142H143.8C144.264 31 144.727 31.0647 145.173 31.1924L147.553 31.8723C147.85 31.9573 148.139 32.0696 148.416 32.2078L149.597 32.7984C149.865 32.9325 150.121 33.0905 150.361 33.2705L150.878 33.6588C151.612 34.209 152.18 34.9504 152.521 35.8018L153 37L153.351 38.4028C153.45 38.7995 153.5 39.2067 153.5 39.6155V41V46.5V53.5L153.98 62.1335C153.993 62.3667 153.906 62.5944 153.74 62.7595V62.7595C153.586 62.9135 153.378 63 153.16 63H147.887C147.639 63 147.402 62.9016 147.227 62.7265V62.7265C147.08 62.5797 146.986 62.3881 146.96 62.1821L146.906 61.7503C146.741 60.4274 145.126 59.8735 144.184 60.8162V60.8162C144.062 60.9379 143.921 61.0393 143.767 61.1163L140.551 62.7247C140.185 62.9076 139.798 63.0448 139.399 63.1335L136.852 63.6996C135.967 63.8962 135.046 63.8486 134.186 63.562L133.213 63.2378C132.74 63.0801 132.294 62.8527 131.888 62.563L130.323 61.445C129.463 60.8308 128.82 59.96 128.486 58.9575L128.257 58.2698C128.087 57.7599 128 57.226 128 56.6886V55V52.6003C128 51.7556 128.214 50.9246 128.622 50.1849L128.658 50.1197C128.885 49.7086 129.168 49.3315 129.5 48.9995L130.5 48L131.165 47.3346C131.714 46.7858 132.383 46.3722 133.12 46.1267L134.628 45.6241C134.876 45.5415 135.129 45.4784 135.387 45.4355L138 45L141.5 44.5L142.635 44.3739C144.551 44.1611 146 42.5416 146 40.6139V40.6139C146 40.2073 145.934 39.8033 145.806 39.4176L145.739 39.2177C145.582 38.7457 145.317 38.3169 144.965 37.9651V37.9651C144.658 37.6582 144.292 37.4169 143.889 37.2557L142.894 36.8576C142.303 36.6214 141.673 36.5 141.037 36.5H140.811C140.274 36.5 139.74 36.5866 139.23 36.7566L138.98 36.84C138.661 36.9462 138.358 37.0944 138.079 37.2807L137.893 37.4046C137.314 37.7905 136.881 38.3583 136.661 39.0184L136.566 39.3013C136.522 39.4329 136.5 39.5707 136.5 39.7094V39.7094ZM135.5 53.6441C135.5 53.2175 135.57 52.7907 135.705 52.386V52.386C135.898 51.8061 136.225 51.275 136.657 50.8428V50.8428C137.207 50.2933 137.907 49.9187 138.669 49.7662L140 49.5L142.774 49.0377C142.924 49.0126 143.077 49 143.229 49V49C144.76 49 146 50.2405 146 51.7707V51.9612C146 52.6337 145.771 53.2861 145.351 53.8111L144.561 54.7983C144.19 55.2624 143.739 55.6566 143.229 55.9623L142.065 56.6609C141.69 56.886 141.287 57.0609 140.866 57.1811L138.952 57.7279C138.34 57.9029 137.684 57.8419 137.114 57.557V57.557C136.411 57.2056 135.91 56.5493 135.756 55.7787L135.584 54.9209C135.528 54.641 135.5 54.3562 135.5 54.0707V53.6441Z" fill="#0069FF"/>
<path fill-rule="evenodd" clip-rule="evenodd" d="M199.5 39.7094C199.5 40.4222 198.922 41 198.209 41H194.003C193.388 41 192.826 40.6528 192.552 40.1031V40.1031C192.517 40.0345 192.488 39.9634 192.464 39.8906L192.412 39.7364C192.145 38.9338 192.145 38.0662 192.412 37.2636L192.627 36.6198C192.872 35.8834 193.286 35.2142 193.835 34.6654L195 33.5L195.084 33.4161C195.685 32.8153 196.429 32.3775 197.246 32.1441L199.5 31.5L200.903 31.1493C201.299 31.0501 201.707 31 202.116 31H205H206.8C207.264 31 207.727 31.0647 208.173 31.1924L210.553 31.8723C210.85 31.9573 211.139 32.0696 211.416 32.2078L212.597 32.7984C212.865 32.9325 213.121 33.0905 213.361 33.2705L213.878 33.6588C214.612 34.209 215.18 34.9504 215.521 35.8018L216 37L216.351 38.4028C216.45 38.7995 216.5 39.2067 216.5 39.6155V41V46.5V53.5L216.98 62.1335C216.993 62.3667 216.906 62.5944 216.74 62.7595V62.7595C216.586 62.9135 216.378 63 216.16 63H210.887C210.639 63 210.402 62.9016 210.227 62.7265V62.7265C210.08 62.5797 209.986 62.3881 209.96 62.1821L209.906 61.7503C209.741 60.4274 208.126 59.8735 207.184 60.8162V60.8162C207.062 60.9379 206.921 61.0393 206.767 61.1163L203.551 62.7247C203.185 62.9076 202.798 63.0448 202.399 63.1335L199.852 63.6996C198.967 63.8962 198.046 63.8486 197.186 63.562L196.213 63.2378C195.74 63.0801 195.294 62.8527 194.888 62.563L193.323 61.445C192.463 60.8308 191.82 59.96 191.486 58.9575L191.257 58.2698C191.087 57.7599 191 57.226 191 56.6886V55V52.6003C191 51.7556 191.214 50.9246 191.622 50.1849L191.658 50.1197C191.885 49.7086 192.168 49.3315 192.5 48.9995L193.5 48L194.165 47.3346C194.714 46.7858 195.383 46.3722 196.12 46.1267L197.628 45.6241C197.876 45.5415 198.129 45.4784 198.387 45.4355L201 45L204.5 44.5L205.635 44.3739C207.551 44.1611 209 42.5416 209 40.6139V40.6139C209 40.2073 208.934 39.8033 208.806 39.4176L208.739 39.2177C208.582 38.7457 208.317 38.3169 207.965 37.9651V37.9651C207.658 37.6582 207.292 37.4169 206.889 37.2557L205.894 36.8576C205.303 36.6214 204.673 36.5 204.037 36.5H203.811C203.274 36.5 202.74 36.5866 202.23 36.7566L201.98 36.84C201.661 36.9462 201.358 37.0944 201.079 37.2807L200.893 37.4046C200.314 37.7905 199.881 38.3583 199.661 39.0184L199.566 39.3013C199.522 39.4329 199.5 39.5707 199.5 39.7094V39.7094ZM198.5 53.6441C198.5 53.2175 198.57 52.7907 198.705 52.386V52.386C198.898 51.8061 199.225 51.275 199.657 50.8428V50.8428C200.207 50.2933 200.907 49.9187 201.669 49.7662L203 49.5L205.774 49.0377C205.924 49.0126 206.077 49 206.229 49V49C207.76 49 209 50.2405 209 51.7707V51.9612C209 52.6337 208.771 53.2861 208.351 53.8111L207.561 54.7983C207.19 55.2624 206.739 55.6566 206.229 55.9623L205.065 56.6609C204.69 56.886 204.287 57.0609 203.866 57.1811L201.952 57.7279C201.34 57.9029 200.684 57.8419 200.114 57.557V57.557C199.411 57.2056 198.91 56.5493 198.756 55.7787L198.584 54.9209C198.528 54.641 198.5 54.3562 198.5 54.0707V53.6441Z" fill="#0069FF"/>
</svg>
