<svg width="87" height="82" viewBox="0 0 87 82" fill="none" xmlns="http://www.w3.org/2000/svg">
<path d="M66.4707 8.30731L73.6172 14.6597C73.8607 14.8762 74 15.1864 74 15.5122C74 15.8237 73.8726 16.1217 73.6473 16.3369L41.8719 46.6895C40.9914 47.5306 39.8205 48 38.6028 48C37.264 48 35.9879 47.433 35.0905 46.4395L23.1555 33.2257C22.7258 32.75 22.1804 32.3935 21.5723 32.1908L21.3412 32.1137C21.1152 32.0384 20.8786 32 20.6404 32C19.9247 32 19.2531 32.3456 18.8372 32.928L17.442 34.8812C17.149 35.2914 16.918 35.7459 16.7586 36.2241C16.588 36.7361 16.5 37.2751 16.5 37.8148C16.5 38.5942 16.6815 39.363 17.0301 40.0601L17.1036 40.2071C17.3663 40.7326 17.7084 41.2144 18.1179 41.6356L33.0289 56.9726C34.289 58.2687 36.0199 59 37.8277 59C39.5434 59 41.1936 58.3411 42.4374 57.1594L70.5 30.5L87 15L84.2275 21.5532C82.4275 25.8078 81.5 30.3804 81.5 35V40.4223C81.5 45.7584 80.4818 51.0455 78.5 56L76.5588 59.6397C75.1904 62.2055 73.5452 64.6139 71.6528 66.8217C69.5586 69.2649 67.1763 71.4455 64.5578 73.3158L61.5 75.5L59.7597 76.4213C55.2769 78.7946 50.4737 80.5053 45.5 81.5L40.7811 81.8146C38.9299 81.938 37.0719 81.9156 35.2242 81.7477C33.4108 81.5828 31.6128 81.2782 29.8462 80.8366L28.2633 80.4408C25.7619 79.8155 23.3365 78.9183 21.0304 77.7652C18.0255 76.2627 15.2502 74.3395 12.7883 72.0534L9.5 69L8.52369 67.8067C6.1874 64.9513 4.28605 61.7661 2.8813 58.3546C1.96258 56.1234 1.26173 53.8087 0.788524 51.4426L0.758085 51.2904C0.253928 48.7696 0 46.2052 0 43.6345V41.7342C0 39.9145 0.150346 38.0979 0.449503 36.303C0.815563 34.1066 1.40273 31.9529 2.20206 29.8746L3.5 26.5L4.93874 23.6225C5.9778 21.5444 7.18679 19.5557 8.55336 17.6766L8.62845 17.5734C9.87423 15.8604 11.2523 14.2477 12.75 12.75L12.9026 12.5974C14.2987 11.2013 15.8021 9.91667 17.3989 8.75536C19.461 7.25563 21.6696 5.96838 23.9908 4.91326L28.657 2.79229C30.5476 1.93292 32.5194 1.26475 34.543 0.797773C36.8402 0.267637 39.1902 0 41.5479 0H44.9284C48.6128 0 52.2671 0.66265 55.7168 1.95631C57.568 2.65048 59.3478 3.5217 61.0315 4.55785L63.3241 5.9687C64.4392 6.65492 65.4921 7.43744 66.4707 8.30731Z" fill="#4F46E5"/>
</svg>
