<svg xmlns="http://www.w3.org/2000/svg" width="87" height="82" viewBox="0 0 87 82" fill="none">
    <path fill="#0069FF" d="M73 43.5C73 60.345 59.345 74 42.5 74S12 60.345 12 43.5 25.655 13 42.5 13 73 26.655 73 43.5z"></path>
    <path fill="#fff" stroke="#0069FF" d="M78.68 26.204l9.697-9.072C91.107 14.578 89.3 10 85.561 10c-1.049 0-2.057.4-2.822 1.117L48.632 43.13a4.979 4.979 0 01-7.117-.261L28.986 29.054a3.904 3.904 0 00-1.662-1.082l-.243-.08a2.336 2.336 0 00-2.628.85l-1.464 2.043A5.297 5.297 0 0022 33.852c0 .815.19 1.618.556 2.347l.078.154c.275.55.634 1.053 1.064 1.493L39.35 53.88A7.039 7.039 0 0044.388 56a7.04 7.04 0 004.838-1.924l29.456-27.872z"></path>
</svg>